HIERARCHY
ROOT Hips
{
  OFFSET 0.000000 0.000000 0.000000
  CHANNELS 6 Xposition Yposition Zposition Zrotation Yrotation Xrotation
  JOINT Spine
  {
    OFFSET -0.000883 2.120903 -0.028059
    CHANNELS 3 Zrotation Yrotation Xrotation
    JOINT Spine1
    {
      OFFSET -0.002865 2.096658 0.129739
      CHANNELS 3 Zrotation Yrotation Xrotation
      JOINT Spine2
      {
        OFFSET -0.000072 2.101496 0.140380
        CHANNELS 3 Zrotation Yrotation Xrotation
        JOINT Neck
        {
          OFFSET 0.073278 1.835262 0.072900
          CHANNELS 3 Zrotation Yrotation Xrotation
          JOINT Head
          {
            OFFSET -0.033980 1.851628 -0.175733
            CHANNELS 3 Zrotation Yrotation Xrotation
            End Site
            {
              OFFSET 0 0 0
            }
          }
        }
        JOINT LeftShoulder
        {
          OFFSET 3.021134 1.180177 0.406022
          CHANNELS 3 Zrotation Yrotation Xrotation
          JOINT LeftArm
          {
            OFFSET 4.585380 -0.000000 -0.000000
            CHANNELS 3 Zrotation Yrotation Xrotation
            JOINT LeftForeArm
            {
              OFFSET 2.689350 -0.000000 -0.000000
              CHANNELS 3 Zrotation Yrotation Xrotation
              JOINT LeftHand
              {
                OFFSET 0.585058 -0.000000 -0.000000
                CHANNELS 3 Zrotation Yrotation Xrotation
                JOINT LeftHandIndex1
                {
                  OFFSET 0.471689 -0.000000 -0.000000
                  CHANNELS 3 Zrotation Yrotation Xrotation
                  End Site
                  {
                    OFFSET 0 0 0
                  }
                }
              }
            }
          }
        }
        JOINT RightShoulder
        {
          OFFSET -2.950738 1.188427 0.314298
          CHANNELS 3 Zrotation Yrotation Xrotation
          JOINT RightArm
          {
            OFFSET -4.474500 -0.000000 -0.000000
            CHANNELS 3 Zrotation Yrotation Xrotation
            JOINT RightForeArm
            {
              OFFSET -2.938960 -0.000000 -0.000000
              CHANNELS 3 Zrotation Yrotation Xrotation
              JOINT RightHand
              {
                OFFSET -0.405092 -0.000000 -0.000000
                CHANNELS 3 Zrotation Yrotation Xrotation
                JOINT RightHandIndex1
                {
                  OFFSET -0.326596 -0.000000 -0.000000
                  CHANNELS 3 Zrotation Yrotation Xrotation
                  End Site
                  {
                    OFFSET 0 0 0
                  }
                }
              }
            }
          }
        }
      }
    }
  }
  JOINT LeftUpLeg
  {
    OFFSET 2.251771 -6.186694 0.000000
    CHANNELS 3 Zrotation Yrotation Xrotation
    JOINT LeftLeg
    {
      OFFSET 2.266012 -6.225823 0.000000
      CHANNELS 3 Zrotation Yrotation Xrotation
      JOINT LeftFoot
      {
        OFFSET 0.237014 -0.651191 2.158476
        CHANNELS 3 Zrotation Yrotation Xrotation
        JOINT LeftToeBase
        {
          OFFSET 0.000000 -0.000000 1.129490
          CHANNELS 3 Zrotation Yrotation Xrotation
          End Site
          {
            OFFSET 0 0 0
          }
        }
      }
    }
  }
  JOINT RightUpLeg
  {
    OFFSET -2.280357 -6.265234 0.000000
    CHANNELS 3 Zrotation Yrotation Xrotation
    JOINT RightLeg
    {
      OFFSET -2.254897 -6.195283 0.000000
      CHANNELS 3 Zrotation Yrotation Xrotation
      JOINT RightFoot
      {
        OFFSET -0.283752 -0.779600 2.231370
        CHANNELS 3 Zrotation Yrotation Xrotation
        JOINT RightToeBase
        {
          OFFSET -0.000000 -0.000000 1.178990
          CHANNELS 3 Zrotation Yrotation Xrotation
          End Site
          {
            OFFSET 0 0 0
          }
        }
      }
    }
  }
}
MOTION
Frames: 6
Frame Time: 0.00833333
0.150196 15.659300 3.585440 20.020000 -29.901200 -29.695300 -87.344000 18.118000 -145.137000 0.000000 0.000000 18.219400 4.565710 0.000000 72.636400 0.000000 0.000000 56.820000 14.666000 13.182500 11.519000 0.000000 0.000000 31.101700 -0.785499 0.000000 -18.515100 0.000000 0.000000 10.977900 7.540540 -0.145444 0.939152 -10.064400 -0.241298 0.520525 -15.417800 -0.144155 -0.049068 16.694600 15.307300 8.297220 -6.562960 13.306200 21.162500 0.000000 0.000000 0.000000 66.302700 1.689310 -23.309700 0.000000 0.000000 143.650000 4.018620 0.000000 -31.017000 0.000000 0.000000 7.125020 0.000000 0.000000 0.000000 -86.487000 41.984000 0.568421 0.000000 0.000000 121.140000 9.524540 0.000000 -29.495800 0.000000 0.000000 7.125020
0.140188 15.658800 3.608970 20.133300 -30.170300 -29.678000 -93.677400 11.871700 -147.814000 0.000000 0.000000 20.097900 -3.292840 0.000000 77.540200 0.000000 0.000000 56.496500 14.490600 13.018400 11.311500 0.000000 0.000000 31.335200 -0.346550 0.000000 -18.706900 0.000000 0.000000 11.139000 7.653090 -0.267666 0.670823 -10.030700 -0.420188 0.434071 -15.447800 -0.241614 -0.046923 16.780600 15.421500 8.404640 -6.595330 13.411500 21.327300 0.000000 -0.000000 0.000000 66.441500 1.856880 -23.483300 0.000000 0.000000 143.834000 4.631370 0.000000 -31.040500 0.000000 0.000000 7.125020 0.000000 -0.000000 0.000000 -85.819300 42.075200 0.938546 0.000000 0.000000 120.973000 9.299630 0.000000 -29.392400 0.000000 0.000000 7.125020
0.130544 15.657100 3.630030 20.301100 -30.373400 -29.765800 -103.940000 181.028000 -232.659000 0.000000 0.000000 22.899800 4.375980 0.000000 -77.394500 0.000000 0.000000 55.394200 14.247800 12.802500 11.174000 0.000000 0.000000 31.588500 0.101045 0.000000 -18.888800 0.000000 0.000000 11.447000 7.663670 -0.386553 0.523441 -10.021400 -0.590374 0.396215 -15.442000 -0.333343 -0.058488 16.866800 15.522600 8.440830 -6.616540 13.498100 21.474700 -0.000000 0.000000 0.000000 66.556000 1.980370 -23.571100 0.000000 0.000000 143.945000 4.840510 0.000000 -31.089800 0.000000 0.000000 7.125020 -0.000000 0.000000 0.000000 -85.162300 42.089800 1.374570 0.000000 0.000000 120.765000 9.031620 0.000000 -29.366500 0.000000 0.000000 7.125020
0.121602 15.653700 3.649190 20.543700 -30.515800 -29.991800 -115.897000 168.680000 -235.442000 0.000000 0.000000 26.232300 24.943500 0.000000 -62.692000 0.000000 0.000000 52.394400 13.944000 12.571300 11.130700 0.000000 0.000000 31.865300 0.504938 0.000000 -19.060600 0.000000 0.000000 11.919700 7.550250 -0.494570 0.516655 -10.037800 -0.740509 0.408159 -15.386500 -0.413753 -0.089044 16.946900 15.605000 8.427290 -6.630660 13.563200 21.590900 0.000000 -0.000000 0.000000 66.661000 2.003200 -23.598800 0.000000 0.000000 144.018000 4.895990 0.000000 -31.150800 0.000000 0.000000 7.125020 0.000000 -0.000000 0.000000 -84.556800 42.033500 1.822510 0.000000 0.000000 120.550000 8.666940 0.000000 -29.381800 0.000000 0.000000 7.125020
0.113828 15.648900 3.666450 20.859400 -30.611800 -30.357700 -127.688000 158.215000 -240.377000 0.000000 0.000000 29.880100 42.692000 0.000000 -39.272000 0.000000 0.000000 45.757800 13.604900 12.366200 11.190800 0.000000 0.000000 32.154700 0.816877 0.000000 -19.220100 0.000000 0.000000 12.548300 7.316120 -0.589382 0.652281 -10.074400 -0.867574 0.472263 -15.276400 -0.480871 -0.135499 17.004000 15.667800 8.370800 -6.640610 13.603900 21.661900 -0.000000 0.000000 0.000000 66.743300 1.951320 -23.575700 0.000000 0.000000 144.023000 4.713630 0.000000 -31.265400 0.000000 0.000000 7.125020 -0.000000 0.000000 0.000000 -84.012300 41.921300 2.266940 0.000000 0.000000 120.354000 8.261040 0.000000 -29.413300 0.000000 0.000000 7.125020
0.107351 15.644000 3.680860 21.251600 -30.668900 -30.847400 -138.261000 150.823000 -246.195000 0.000000 0.000000 33.748900 47.633700 0.000000 -8.896470 0.000000 0.000000 35.572400 13.239700 12.224600 11.344100 0.000000 0.000000 32.433100 1.010680 0.000000 -19.361800 0.000000 0.000000 13.246900 6.973070 -0.666255 0.916141 -10.128900 -0.967427 0.574417 -15.116400 -0.533708 -0.203414 17.035300 15.709100 8.294800 -6.654700 13.622400 21.685900 -0.000000 0.000000 0.000000 66.816000 1.802680 -23.534800 0.000000 0.000000 143.991000 4.491410 0.000000 -31.397400 0.000000 0.000000 7.125020 -0.000000 0.000000 0.000000 -83.554600 41.771300 2.672670 0.000000 0.000000 120.202000 7.839250 0.000000 -29.408500 0.000000 0.000000 7.125020
